<svg width="470" height="216" viewBox="0 0 470 216" fill="none" xmlns="http://www.w3.org/2000/svg">
<g clip-path="url(#clip0_1_3)">
<path d="M166.022 99.396C164.605 100.195 163.083 100.477 161.477 100.896C153.045 103.093 144.492 105.35 136.061 107.548C135.5 107.636 135.099 107.741 134.621 107.693C134.023 107.706 133.872 107.402 134.243 106.933C134.532 106.6 134.903 106.131 135.35 105.814C142.838 100.196 150.205 94.6384 157.655 88.9447C159.284 87.6607 161.224 86.6969 163.353 86.1136C172.232 83.5993 181.11 81.0851 189.989 78.5708C190.549 78.4821 191.072 78.3172 191.671 78.3045C192.39 78.2315 192.579 78.6119 192.086 79.1414C191.798 79.4742 191.51 79.8071 191.063 80.1241C183.772 85.8337 176.519 91.6194 169.106 97.3892C168.167 98.2357 167.234 98.7937 166.022 99.396Z" fill="black"/>
<path d="M150.074 107.605C148.734 108.081 148.708 108.663 148.897 109.043C149.88 111.021 150.825 112.923 151.77 114.825C152.11 115.51 152.678 115.702 153.664 115.782C153.992 115.808 154.447 115.772 154.775 115.798C157.214 115.63 159.881 114.969 162.472 114.156C167.655 112.529 172.535 110.294 177.277 107.464C180.325 105.665 183.221 103.562 185.751 101.356C186.826 100.348 187.902 99.3392 188.484 98.2909C188.927 97.5964 188.991 97.0903 188.6 96.6206C187.819 94.7318 186.874 92.8298 185.929 90.9278C185.4 89.8627 184.211 90.6431 183.743 90.9704C179.772 94.0821 175.51 97.2434 171.538 100.355C169.489 101.942 167.339 103.01 164.963 103.622L150.074 107.605Z" fill="black"/>
<path d="M189.634 85.7669C189.308 86.0237 189.225 86.16 189.376 86.4643C190.245 88.2142 191.077 89.8879 191.947 91.6378C192.022 91.7899 192.014 92.0784 191.969 92.2908C191.816 93.5049 191.664 94.7191 191.632 95.873C191.563 96.9508 192.259 97.7433 193.531 97.87C193.887 97.9778 194.486 97.9651 194.925 97.9365C195.402 97.9841 196.046 97.759 196.569 97.5941C197.455 97.2485 198.031 96.5828 198.486 95.9773C198.653 95.7047 198.941 95.3718 199.07 95.0231C199.495 94.053 199.239 93.232 198.656 92.6677C197.763 91.7833 196.582 91.2318 195.401 90.6803C195.083 90.6486 194.932 90.3442 194.856 90.1921C193.911 88.2901 193.004 86.4642 192.059 84.5622C191.87 84.1818 191.423 84.4988 191.218 84.6953L189.634 85.7669Z" fill="black"/>
</g>
<path d="M198.654 108.909L193.825 138H187.234L179.279 122.716H179.109L176.552 138H168.654L173.484 108.909H180.189L188.029 124.136H188.257L190.757 108.909H198.654ZM197.561 138L202.39 108.909H223.356L222.277 115.273H209.208L208.413 120.273H220.402L219.322 126.636H207.333L206.538 131.636H219.549L218.47 138H197.561ZM235.398 108.909L238.75 117.375H238.978L245.228 108.909H254.375L243.296 123.455L249.887 138H241.08L237.557 129.364H237.33L230.966 138H221.762L233.125 123.455L226.875 108.909H235.398ZM274.997 108.909H282.895L279.798 127.545C279.438 129.761 278.595 131.679 277.27 133.298C275.953 134.908 274.277 136.153 272.241 137.034C270.205 137.905 267.942 138.341 265.451 138.341C262.942 138.341 260.821 137.905 259.088 137.034C257.355 136.153 256.095 134.908 255.309 133.298C254.533 131.679 254.324 129.761 254.684 127.545L257.781 108.909H265.679L262.696 126.864C262.554 127.763 262.625 128.563 262.909 129.264C263.193 129.965 263.652 130.519 264.287 130.926C264.921 131.324 265.688 131.523 266.588 131.523C267.497 131.523 268.335 131.324 269.102 130.926C269.878 130.519 270.522 129.965 271.034 129.264C271.545 128.563 271.872 127.763 272.014 126.864L274.997 108.909ZM300.796 118C300.881 117.062 300.654 116.329 300.114 115.798C299.574 115.259 298.665 114.989 297.387 114.989C296.572 114.989 295.891 115.083 295.341 115.273C294.801 115.462 294.38 115.723 294.077 116.054C293.783 116.385 293.599 116.769 293.523 117.205C293.438 117.545 293.443 117.858 293.537 118.142C293.641 118.417 293.836 118.668 294.12 118.895C294.413 119.122 294.797 119.326 295.27 119.506C295.753 119.686 296.326 119.847 296.989 119.989L299.262 120.5C300.815 120.841 302.117 121.291 303.168 121.849C304.229 122.399 305.062 123.052 305.668 123.81C306.274 124.567 306.672 125.415 306.861 126.352C307.06 127.29 307.065 128.312 306.875 129.42C306.553 131.333 305.81 132.953 304.645 134.278C303.48 135.604 301.961 136.613 300.086 137.304C298.211 137.995 296.042 138.341 293.58 138.341C291.061 138.341 288.921 137.967 287.159 137.219C285.408 136.461 284.139 135.306 283.353 133.753C282.576 132.19 282.387 130.197 282.784 127.773H290.284C290.171 128.663 290.266 129.411 290.569 130.017C290.872 130.623 291.359 131.082 292.032 131.395C292.704 131.707 293.542 131.864 294.546 131.864C295.398 131.864 296.127 131.759 296.733 131.551C297.339 131.343 297.818 131.054 298.168 130.685C298.518 130.315 298.731 129.894 298.807 129.42C298.883 128.985 298.807 128.597 298.58 128.256C298.353 127.915 297.941 127.607 297.344 127.332C296.748 127.058 295.928 126.807 294.887 126.58L292.103 125.955C289.631 125.386 287.766 124.449 286.506 123.142C285.247 121.835 284.801 120.045 285.171 117.773C285.474 115.917 286.236 114.297 287.458 112.915C288.689 111.523 290.251 110.443 292.145 109.676C294.049 108.9 296.156 108.511 298.466 108.511C300.815 108.511 302.78 108.904 304.361 109.69C305.952 110.476 307.093 111.58 307.784 113C308.485 114.42 308.675 116.087 308.353 118H300.796Z" fill="#6863C7"/>
<defs>
<clipPath id="clip0_1_3">
<rect width="70.3945" height="44.1758" fill="white" transform="translate(124.651 94.6237) rotate(-26.421)"/>
</clipPath>
</defs>
</svg>
